<?xml version="1.0" encoding="UTF-8"?>
<svg width="70px" height="53px" viewBox="0 0 70 53" version="1.1" xmlns="http://www.w3.org/2000/svg" xmlns:xlink="http://www.w3.org/1999/xlink">
    <title>Analysis</title>
    <g id="Page-1" stroke="none" stroke-width="1" fill="none" fill-rule="evenodd">
        <g id="Service-1-Single--Page-1" transform="translate(-382.000000, -2055.000000)" stroke-width="1.5">
            <g id="Analysis" transform="translate(383.000000, 2056.000000)">
                <path d="M52.257598,40.7578484 L63.6974975,40.7578484 C64.6843391,40.7470071 65.6343013,40.3812869 66.3736474,39.7275734 C67.1586842,38.9398009 67.6233243,37.888648 67.6775224,36.7778236 L67.6775224,4.18949984 C67.6775224,3.13432431 67.2580637,2.12242838 66.5115412,1.37670764 C65.7650186,0.630986902 64.7526724,0.212615394 63.6974975,0.21374769 L4.19377484,0.21374769 C3.13859992,0.212615394 2.12625378,0.630986902 1.3797312,1.37670764 C0.633208607,2.12242838 0.213749992,3.13432431 0.213749992,4.18949984 L0.213749992,36.7649986 C0.222069979,37.8200186 0.640631463,38.8303923 1.38082495,39.5822235 C2.13227938,40.319827 3.14083888,40.7367391 4.19377484,40.7450234 L52.257598,40.7578484 Z" id="Path" stroke="#050000"></path>
                <polyline id="Path" stroke="#050000" stroke-linecap="round" points="0.213749992 29.1383989 11.0765246 17.0144993 17.6471993 25.602974 33.9392237 8.67397466 41.6470484 20.4857992 60.1706227 3.45419987 67.6646974 15.7490994"></polyline>
                <line x1="35.2687486" y1="40.8219734" x2="35.2687486" y2="46.2554982" id="Path" stroke="#020000" stroke-linecap="round"></line>
                <rect id="Rectangle" stroke="#000000" fill-opacity="0.42" fill="#FF0022" fill-rule="nonzero" x="23.5082241" y="46.4777982" width="23.6193741" height="4.29637483" rx="1.26967495"></rect>
            </g>
        </g>
    </g>
</svg>