<?xml version="1.0" encoding="UTF-8"?>
<svg width="39px" height="54px" viewBox="0 0 39 54" version="1.1" xmlns="http://www.w3.org/2000/svg" xmlns:xlink="http://www.w3.org/1999/xlink">
    <title>Context</title>
    <g id="Page-1" stroke="none" stroke-width="1" fill="none" fill-rule="evenodd">
        <g id="Service-1-Single--Page-1" transform="translate(-316.000000, -2051.000000)">
            <g id="Context" transform="translate(317.000000, 2052.000000)">
                <path d="M5.16017538,0.175158703 L30.1658318,0.175158703 C30.8009612,0.130999557 31.3522503,0.608679089 31.398949,1.24362679 L31.398949,10.5515603 C31.3432117,11.1794974 30.7946655,11.6470084 30.1658318,11.6025125 L6.38978947,11.6025125 C5.76227259,11.6450117 5.21591555,11.1780398 5.16017538,10.5515603 C5.16017538,8.71589705 5.02004842,7.16399094 5.08310555,7.0483862" id="Path" stroke="#050000" stroke-width="1.3" stroke-linecap="round"></path>
                <rect id="Rectangle" stroke="#000000" stroke-width="1.1" fill-opacity="0.42" fill="#FF0022" fill-rule="nonzero" x="5.16017538" y="20.6442047" width="26.7677529" height="2.4837504" rx="0.599042763"></rect>
                <rect id="Rectangle" stroke="#050000" stroke-width="1.1" x="4.89393415" y="27.5664766" width="26.7677529" height="2.4837504" rx="0.599042763"></rect>
                <rect id="Rectangle" stroke="#050000" stroke-width="1.1" x="4.87992146" y="34.2925708" width="26.7677529" height="2.4837504" rx="0.599042763"></rect>
                <path d="M31.4024522,6.9607847 L33.8546741,6.9607847 C34.5189411,6.95801187 35.1569601,7.21993391 35.627657,7.68865863 C36.098354,8.15738336 36.3629467,8.79429707 36.3629467,9.45856995 L36.3629467,49.3492129 C36.3629467,50.7286894 35.24466,51.846976 33.8651836,51.846976 L2.6869345,51.846976 C1.30745803,51.846976 0.189171399,50.7286894 0.189171399,49.3492129 L0.189171399,9.45856995 C0.189171399,8.07909348 1.30745803,6.9607847 2.6869345,6.9607847 L5.09711825,6.9607847" id="Path" stroke="#050000" stroke-width="1.3" stroke-linecap="round"></path>
            </g>
        </g>
    </g>
</svg>