<?xml version="1.0" encoding="UTF-8"?>
<svg width="66px" height="64px" viewBox="0 0 66 64" version="1.1" xmlns="http://www.w3.org/2000/svg" xmlns:xlink="http://www.w3.org/1999/xlink">
    <title>Paln Development</title>
    <defs>
        <linearGradient x1="0.106030484%" y1="49.9334044%" x2="99.9337309%" y2="49.9334044%" id="linearGradient-1">
            <stop stop-color="#FF2380" offset="0%"></stop>
            <stop stop-color="#FF7C5C" offset="100%"></stop>
        </linearGradient>
    </defs>
    <g id="Page-1" stroke="none" stroke-width="1" fill="none" fill-rule="evenodd">
        <g id="Service-1-Single--Page-1" transform="translate(-476.000000, -2044.000000)">
            <g id="Paln-Development" transform="translate(476.000000, 2044.000000)">
                <path d="M39.1000011,21.1174006 L40.2356011,23.5960007 L35.904001,25.5850007 L34.754801,23.1200006 L34.676601,22.9670006 L34.527001,22.9874006 C33.5963678,23.1598927 32.6451431,23.1919822 31.7050009,23.0826006 L31.5554009,23.0622006 L31.4976009,23.2152007 L30.5320009,25.7686007 L26.0644007,24.1026007 L27.0130008,21.5492006 L27.0674008,21.3962006 L26.9348008,21.3010006 C26.158717,20.7596843 25.4647719,20.1092538 24.8744007,19.3698005 L24.7792007,19.2406005 L24.6262007,19.3154005 L22.1476006,20.4510006 L20.1790006,16.0820005 L22.6576006,14.9600004 L22.8106006,14.8852004 L22.7800006,14.7220004 C22.6069373,13.7913811 22.5759855,12.8398998 22.6882006,11.9000003 L22.6882006,11.7504003 L22.5386006,11.6926003 L19.9818006,10.7474003 L21.6478006,6.27980018 L24.2012007,7.2250002 L24.3542007,7.2828002 L24.4800007,7.1400002 C25.0238091,6.3730048 25.6727616,5.6862825 26.4078007,5.10000014 L26.5404007,5.00480014 L26.4622007,4.85520014 L25.3266007,2.38000007 L29.6616008,0.411400012 L30.7972009,2.89000008 L30.8720009,3.03960009 L31.0420009,3.02260008 C31.9726006,2.84980133 32.9238715,2.81771026 33.8640009,2.92740008 L34.034001,2.94780008 L34.091801,2.79480008 L35.037001,0.241400007 L39.5046011,1.90400005 L38.5560011,4.46080013 L38.5016011,4.61040013 L38.6342011,4.70560013 C39.4087265,5.24883683 40.1024144,5.89902615 40.6946011,6.63680019 L40.8102011,6.76940019 L40.9598011,6.69460019 L43.4418012,5.55900016 L45.4274013,9.89400028 L42.9488012,11.0296003 L42.7958012,11.1044003 L42.8366012,11.2540003 C42.9995233,12.1856936 43.0304267,13.1356884 42.9284012,14.0760004 L42.9284012,14.2460004 L43.0780012,14.3038004 L45.6348013,15.2490004 L43.9518012,19.7200006 L41.3950012,18.7748005 L41.2454012,18.7170005 L41.1502012,18.8496005 C40.6071104,19.6252417 39.9569229,20.3200724 39.2190011,20.9134006 L39.1068011,21.0086006 L39.1000011,21.1174006 Z M27.7270008,11.0874003 C26.6827149,13.8782131 28.0983657,16.9871993 30.8890672,18.0317827 C33.6797686,19.0763661 36.7889057,17.6610468 37.8337866,14.8704567 C38.8786676,12.0798666 37.4636797,8.97057865 34.673201,7.92540022 C31.8821644,6.88799934 28.7775185,8.30127426 27.7270008,11.0874003 L27.7270008,11.0874003 Z" id="Shape" fill="url(#linearGradient-1)" fill-rule="nonzero" opacity="0.42"></path>
                <path d="M38.7600011,23.0656006 L39.8956011,25.5442007 L35.564001,27.5400008 L34.428401,25.0614007 L34.353601,24.9084007 L34.200601,24.9288007 C33.2711294,25.101885 32.3207651,25.1328378 31.3820009,25.0206007 L31.2290009,25.0206007 L31.1746009,25.1702007 L30.2090008,27.7270008 L25.7414007,26.0610007 L26.6866007,23.5076007 L26.7444008,23.3546007 L26.6118007,23.2594007 C25.8361595,22.7163099 25.1413289,22.0661224 24.5480007,21.3282006 L24.4528007,21.1956006 L24.3032007,21.2738006 L21.8246006,22.4094006 L19.8560006,18.0200005 L22.3346006,16.8844005 L22.4842006,16.8096005 L22.4842006,16.6566005 C22.311641,15.7271201 22.2795503,14.7770058 22.3890006,13.8380004 L22.4094006,13.6884004 L22.2564006,13.6306004 L19.6860006,12.6922004 L21.3486006,8.22800023 L23.9054007,9.18000026 L24.0584007,9.23780026 L24.1502007,9.10520026 C24.6942775,8.33035946 25.344343,7.63565917 26.0814007,7.0414002 L26.2140007,6.94620019 L26.1392007,6.79660019 L25.0036007,4.31460012 L29.3386008,2.34600007 L30.4742009,4.82800014 L30.5490009,4.97760014 L30.7190009,4.97760014 C31.6482708,4.80312075 32.598676,4.77102021 33.5376009,4.88240014 L33.7110009,4.89940014 L33.7654009,4.74980013 L34.714001,2.19300006 L39.1782011,3.85900011 L38.2330011,6.41580018 L38.1752011,6.56540018 L38.3078011,6.66060019 C39.0826419,7.20467699 39.7773422,7.85474251 40.3716011,8.59180024 L40.4838011,8.72440024 L40.6368011,8.64960024 L43.1154012,7.48000021 L45.1044013,11.8116003 L42.6224012,12.9472004 L42.4728012,13.0254004 L42.5102012,13.1750004 C42.6742112,14.1065382 42.7062591,15.0565274 42.6054012,15.9970004 L42.5850012,16.1670005 L42.7380012,16.2214005 L45.2914013,17.1700005 L43.6254012,21.6546006 L41.0720012,20.7094006 L40.9190011,20.6516006 L40.8272011,20.7842006 C40.2831243,21.5590414 39.6330588,22.2537417 38.8960011,22.8480006 L38.7804011,22.9432006 L38.7600011,23.0656006 Z M27.3836008,13.0356004 C26.3487144,15.8269798 27.7701341,18.9291103 30.5600497,19.9679364 C33.3499653,21.0067626 36.4540994,19.5897239 37.4968633,16.8012776 C38.5396272,14.0128314 37.1269723,10.9066998 34.340001,9.86000028 C31.5489644,8.82259939 28.4443185,10.2358743 27.3938008,13.0220004 L27.3836008,13.0356004 Z" id="Shape" stroke="#000000" stroke-width="1.5"></path>
                <line x1="56.8208016" y1="33.1398009" x2="48.1032013" y2="44.9242013" id="Path" stroke="#000000" stroke-width="1.5" stroke-linecap="square"></line>
                <polyline id="Path" stroke="#000000" stroke-width="1.5" stroke-linecap="square" points="56.0558016 38.5050011 59.8876017 40.9938011 56.0558016 43.8702012"></polyline>
                <polyline id="Path" stroke="#000000" stroke-width="1.5" stroke-linecap="square" points="47.2396013 40.0384011 43.4078012 37.5462011 47.2396013 34.673201"></polyline>
                <polyline id="Path" stroke="#000000" stroke-width="1.5" points="22.3108006 15.0586004 1.14240003 15.0586004 1.14240003 48.1712014 1.14240003 54.0124015 28.2846008 54.0124015 38.4200011 54.0124015 64.7700018 54.0124015 64.7700018 48.1712014 64.7700018 15.0586004 42.6564012 15.0586004"></polyline>
                <line x1="1.14240003" y1="48.1712014" x2="64.7700018" y2="48.1712014" id="Path" stroke="#000000" stroke-width="1.5"></line>
                <polyline id="Path" stroke="#000000" stroke-width="1.5" points="24.1910007 62.7776018 28.2880008 54.0124015 38.4200011 54.0124015 42.3708012 62.7776018"></polyline>
                <line x1="0.170000005" y1="62.7776018" x2="64.7700018" y2="62.7776018" id="Path" stroke="#000000" stroke-width="1.5"></line>
            </g>
        </g>
    </g>
</svg>